<?xml version="1.0" standalone="no"?>
<!DOCTYPE svg PUBLIC "-//W3C//DTD SVG 20010904//EN"
 "http://www.w3.org/TR/2001/REC-SVG-20010904/DTD/svg10.dtd">
<svg version="1.0" xmlns="http://www.w3.org/2000/svg"
 width="260.000000pt" height="260.000000pt" viewBox="0 0 260.000000 260.000000"
 preserveAspectRatio="xMidYMid meet">
<metadata>
Created by potrace 1.11, written by Peter Selinger 2001-2013
</metadata>
<g transform="translate(0.000000,260.000000) scale(0.100000,-0.100000)"
fill="#000000" stroke="none">
<path d="M47 1724 c-7 -7 2 -34 13 -34 4 0 45 -23 91 -50 159 -95 357 -185
537 -243 l103 -33 -48 -12 c-45 -12 -194 -63 -238 -82 -80 -34 -285 -136 -339
-170 -37 -22 -70 -40 -74 -40 -4 -1 -18 -10 -31 -21 -21 -17 -22 -22 -10 -30
20 -13 19 -13 126 40 130 64 326 140 403 156 3 1 48 11 100 24 123 30 158 36
250 47 19 3 62 8 95 11 81 10 460 10 562 0 78 -8 96 -10 153 -22 14 -3 43 -8
65 -11 111 -16 380 -96 457 -135 10 -5 22 -9 27 -9 6 0 62 -25 125 -56 104
-51 146 -61 146 -36 0 9 -107 74 -222 137 -108 58 -264 124 -400 170 l-127 43
62 17 c150 41 396 150 584 259 94 54 114 73 89 82 -11 4 -67 -17 -144 -54
-169 -80 -398 -158 -553 -187 -13 -3 -35 -7 -49 -10 -32 -6 -91 -14 -216 -29
-107 -13 -454 -14 -564 -2 -297 33 -581 112 -819 226 -121 59 -142 66 -154 54z"/>
<path d="M1178 1265 c-2 -2 -43 -6 -93 -10 -49 -3 -103 -8 -120 -10 -16 -2
-57 -6 -90 -10 -68 -8 -190 -42 -315 -87 -206 -74 -530 -243 -515 -268 10 -16
33 -12 98 21 200 101 508 196 747 229 211 30 633 33 776 6 10 -2 42 -7 69 -10
28 -4 68 -11 90 -16 22 -5 56 -12 75 -15 132 -23 360 -101 530 -181 88 -42
130 -50 130 -27 0 10 -137 88 -265 151 -223 110 -473 192 -665 218 -41 6 -447
14 -452 9z"/>
</g>
</svg>
